<?xml version="1.0" standalone="no"?><!DOCTYPE svg PUBLIC "-//W3C//DTD SVG 1.1//EN" "http://www.w3.org/Graphics/SVG/1.1/DTD/svg11.dtd"><svg t="1594449090128" class="icon" viewBox="0 0 1024 1024" version="1.1" xmlns="http://www.w3.org/2000/svg" p-id="1766" xmlns:xlink="http://www.w3.org/1999/xlink" width="200" height="200"><defs><style type="text/css"></style></defs><path d="M802.0390625 501.453125c-15.8203125-10.546875-31.640625-15.8203125-52.734375-10.546875-21.09375 0-31.640625 10.546875-42.1875 26.3671875-10.546875 15.8203125-10.546875 31.640625-10.546875 52.734375s5.2734375 31.640625 21.09375 47.4609375c10.546875 10.546875 26.3671875 21.09375 47.4609375 21.09375s36.9140625-5.2734375 47.4609375-21.09375c10.546875-10.546875 15.8203125-31.640625 15.8203125-58.0078125 0-31.640625-5.2734375-47.4609375-26.3671875-58.0078125z" p-id="1767"></path><path d="M90.125 90.125v843.75h843.75V90.125H90.125z m274.21875 580.078125H163.953125V337.9765625H353.796875v36.9140625H211.4140625v100.1953125h131.8359375V512H211.4140625v116.015625h152.9296875v42.1875z m216.2109375-21.09375c-15.8203125 15.8203125-42.1875 21.09375-73.828125 21.09375-31.640625 0-58.0078125-10.546875-73.828125-26.3671875-21.09375-15.8203125-26.3671875-36.9140625-26.3671875-63.28125V564.734375h42.1875v10.546875c0 21.09375 5.2734375 31.640625 15.8203125 42.1875 10.546875 10.546875 26.3671875 15.8203125 42.1875 15.8203125 21.09375 0 36.9140625-5.2734375 47.4609375-15.8203125 5.2734375-10.546875 10.546875-21.09375 10.546875-36.9140625 0-10.546875-5.2734375-26.3671875-15.8203125-36.9140625-10.546875-10.546875-26.3671875-21.09375-47.4609375-26.3671875-31.640625-10.546875-52.734375-26.3671875-68.5546875-36.9140625-15.8203125-15.8203125-21.09375-36.9140625-21.09375-52.734375 0-26.3671875 10.546875-47.4609375 26.3671875-63.28125 21.09375-21.09375 42.1875-26.3671875 68.5546875-26.3671875 31.640625 0 58.0078125 10.546875 73.828125 31.640625 10.546875 15.8203125 21.09375 36.9140625 21.09375 58.0078125h-42.1875c0-15.8203125 0-26.3671875-10.546875-36.9140625-10.546875-10.546875-26.3671875-15.8203125-42.1875-15.8203125-15.8203125 0-26.3671875 5.2734375-36.9140625 10.546875-10.546875 10.546875-10.546875 21.09375-10.546875 36.9140625 0 10.546875 0 21.09375 10.546875 26.3671875 5.2734375 10.546875 26.3671875 15.8203125 52.734375 31.640625 26.3671875 10.546875 47.4609375 26.3671875 63.28125 42.1875 15.8203125 15.8203125 21.09375 36.9140625 21.09375 52.734375 5.2734375 31.640625-5.2734375 52.734375-26.3671875 73.828125z m279.4921875-42.1875c-5.2734375 15.8203125-15.8203125 31.640625-31.640625 47.4609375-15.8203125 15.8203125-36.9140625 21.09375-63.28125 21.09375s-47.4609375-5.2734375-68.5546875-15.8203125c-21.09375-10.546875-31.640625-26.3671875-36.9140625-47.4609375-5.2734375-21.09375-10.546875-36.9140625-10.546875-58.0078125 0-21.09375 5.2734375-31.640625 10.546875-47.4609375 10.546875-10.546875 21.09375-26.3671875 31.640625-47.4609375l79.1015625-121.2890625h42.1875l-79.1015625 126.5625c36.9140625-10.546875 63.28125-5.2734375 84.375 5.2734375 21.09375 10.546875 31.640625 26.3671875 42.1875 36.9140625 5.2734375 15.8203125 10.546875 31.640625 10.546875 47.4609375 0 15.8203125 0 36.9140625-10.546875 52.734375z" p-id="1768"></path></svg>