<?xml version="1.0" standalone="no"?><!DOCTYPE svg PUBLIC "-//W3C//DTD SVG 1.1//EN" "http://www.w3.org/Graphics/SVG/1.1/DTD/svg11.dtd"><svg t="1565888110364" class="icon" viewBox="0 0 1024 1024" version="1.1" xmlns="http://www.w3.org/2000/svg" p-id="2307" xmlns:xlink="http://www.w3.org/1999/xlink" width="200" height="200"><defs><style type="text/css"></style></defs><path d="M1015.744 331.712l-61.376-56.192c-14.272-14.08-42.624-14.08-66.112 4.672L453.568 711.04c-18.944 18.624-23.616 46.784-4.736 65.408l56.64 56.256c14.208 14.08 42.56 14.08 66.176-4.672l434.752-430.784c18.88-18.688 23.488-46.848 9.344-65.536z m-462.976 557.312l-179.52 98.304h368.512a46.976 46.976 0 0 0 47.104-46.784v-276.352l-221.952 220.096c-4.736-0.064-9.408-0.064-14.144 4.736z m-160.704-135.808c4.736-9.408 9.472-18.752 18.88-28.096l377.92-374.656V78.784A46.976 46.976 0 0 0 741.76 32H47.232A47.104 47.104 0 0 0 0 78.784v856.96c0 28.096 23.616 46.784 47.232 46.784h245.696l99.136-229.312zM122.816 102.208h519.68c28.352 0 47.232 14.08 47.232 28.096 0 14.08-23.552 28.096-47.232 28.096h-519.68c-28.352 0-47.232-14.08-47.232-28.096-4.736-14.016 18.88-28.096 47.232-28.096z m0 163.904h519.68c28.352 0 47.232 14.016 47.232 32.768 0 18.688-23.552 28.096-47.232 28.096h-519.68c-28.352 0-47.232-14.08-47.232-32.768s18.88-28.096 47.232-28.096z m0 229.44c-28.352 0-47.232-14.016-47.232-32.768 0-18.688 23.616-32.768 47.232-32.768h321.28c28.352 0 47.232 14.08 47.232 32.768 0 18.752-23.616 32.768-47.232 32.768h-321.28z m278.72 285.696L307.008 992l207.936-102.976-113.408-107.776z" p-id="2308"></path></svg>