<?xml version="1.0" standalone="no"?><!DOCTYPE svg PUBLIC "-//W3C//DTD SVG 1.1//EN" "http://www.w3.org/Graphics/SVG/1.1/DTD/svg11.dtd"><svg t="1581563448745" class="icon" viewBox="0 0 1024 1024" version="1.1" xmlns="http://www.w3.org/2000/svg" p-id="5430" xmlns:xlink="http://www.w3.org/1999/xlink" width="200" height="200"><defs><style type="text/css"></style></defs><path d="M893.44 754.773333l-78.506667-249.173333a54.186667 54.186667 0 0 0-51.2-36.266667h-61.013333a810.666667 810.666667 0 0 1-132.693333 152.746667l-6.4 5.973333a75.52 75.52 0 0 1-103.253334 0l-7.253333-7.253333A784.64 784.64 0 0 1 320.853333 469.333333H256a53.333333 53.333333 0 0 0-51.626667 38.4l-73.386666 243.2a53.76 53.76 0 0 0 64.426666 67.84l165.973334-42.666666a54.613333 54.613333 0 0 1 45.653333 9.386666l131.84 99.84a55.04 55.04 0 0 0 45.653333 10.666667l271.36-71.253333a53.333333 53.333333 0 0 0 38.4-65.28 27.306667 27.306667 0 0 0 0-2.986667z" p-id="5431"></path><path d="M495.786667 589.653333a23.893333 23.893333 0 0 0 32.426666 0c58.453333-55.466667 170.666667-158.72 170.666667-273.493333a188.16 188.16 0 0 0-376.32 0c1.28 115.2 113.493333 216.32 173.226667 273.493333zM512 245.333333a70.826667 70.826667 0 1 1 0 141.226667 70.826667 70.826667 0 0 1 0-141.226667z" p-id="5432"></path></svg>